<svg xmlns="http://www.w3.org/2000/svg" viewBox="0 0 1024 1024" fill="#208496">
<path d="M 793 497 793 667 L 793 667 794 668 L 794 668 793 669 L 793 669 793 671 L 793 671 794 672 L 794 672 794 698 L 794 698 878 698 L 878 698 879 697 L 879 697 885 697 L 885 697 886 696 L 886 696 889 696 L 889 696 890 695 L 890 695 893 695 L 893 695 894 694 L 894 694 896 694 L 896 694 897 693 L 897 693 898 693 L 898 693 899 692 L 899 692 901 692 L 901 692 902 691 L 902 691 903 691 L 903 691 904 690 L 904 690 905 690 L 905 690 906 689 L 906 689 907 689 L 907 689 908 688 L 908 688 909 688 L 909 688 911 686 L 911 686 912 686 L 912 686 914 684 L 914 684 915 684 L 915 684 918 681 L 918 681 919 681 L 919 681 923 677 L 923 677 923 676 L 923 676 924 675 L 924 675 925 675 L 925 675 925 674 L 925 674 928 671 L 928 671 928 670 L 928 670 930 668 L 930 668 930 667 L 930 667 931 666 L 931 666 931 665 L 931 665 932 664 L 932 664 932 662 L 932 662 933 661 L 933 661 933 659 L 933 659 934 658 L 934 658 934 656 L 934 656 935 655 L 935 655 935 650 L 935 650 936 649 L 936 649 936 637 L 936 637 935 636 L 935 636 935 630 L 935 630 934 629 L 934 629 934 626 L 934 626 933 625 L 933 625 933 623 L 933 623 932 622 L 932 622 932 620 L 932 620 931 619 L 931 619 931 618 L 931 618 930 617 L 930 617 930 616 L 930 616 928 614 L 928 614 928 613 L 928 613 926 611 L 926 611 926 610 L 926 610 918 602 L 918 602 917 602 L 917 602 915 600 L 915 600 914 600 L 914 600 912 598 L 912 598 911 598 L 911 598 910 597 L 910 597 909 597 L 909 597 908 596 L 908 596 907 596 L 907 596 906 595 L 906 595 905 595 L 905 595 904 594 L 904 594 903 594 L 903 594 902 593 L 902 593 900 593 L 900 593 899 592 L 899 592 900 591 L 900 591 901 591 L 901 591 902 590 L 902 590 903 590 L 903 590 904 589 L 904 589 905 589 L 905 589 906 588 L 906 588 907 588 L 907 588 909 586 L 909 586 910 586 L 910 586 920 576 L 920 576 920 575 L 920 575 921 574 L 921 574 921 573 L 921 573 923 571 L 923 571 923 570 L 923 570 924 569 L 924 569 924 567 L 924 567 925 566 L 925 566 925 565 L 925 565 926 564 L 926 564 926 562 L 926 562 927 561 L 927 561 927 555 L 927 555 928 554 L 928 554 928 537 L 928 537 927 536 L 927 536 927 532 L 927 532 926 531 L 926 531 926 529 L 926 529 925 528 L 925 528 925 527 L 925 527 924 526 L 924 526 924 525 L 924 525 923 524 L 923 524 923 523 L 923 523 922 522 L 922 522 922 521 L 922 521 919 518 L 919 518 919 517 L 919 517 913 511 L 913 511 912 511 L 912 511 910 509 L 910 509 909 509 L 909 509 907 507 L 907 507 906 507 L 906 507 904 505 L 904 505 903 505 L 903 505 902 504 L 902 504 901 504 L 901 504 900 503 L 900 503 899 503 L 899 503 898 502 L 898 502 897 502 L 897 502 896 501 L 896 501 894 501 L 894 501 893 500 L 893 500 890 500 L 890 500 889 499 L 889 499 887 499 L 887 499 886 498 L 886 498 882 498 L 882 498 881 497 L 881 497 Z" fill="currentColor"/><path d="M 593 497 593 639 L 593 639 594 640 L 594 640 594 644 L 594 644 595 645 L 595 645 595 649 L 595 649 596 650 L 596 650 596 652 L 596 652 597 653 L 597 653 597 655 L 597 655 598 656 L 598 656 598 657 L 598 657 599 658 L 599 658 599 660 L 599 660 600 661 L 600 661 600 662 L 600 662 602 664 L 602 664 602 665 L 602 665 603 666 L 603 666 603 667 L 603 667 605 669 L 605 669 605 670 L 605 670 608 673 L 608 673 608 674 L 608 674 618 684 L 618 684 619 684 L 619 684 622 687 L 622 687 623 687 L 623 687 625 689 L 625 689 626 689 L 626 689 628 691 L 628 691 629 691 L 629 691 630 692 L 630 692 631 692 L 631 692 632 693 L 632 693 633 693 L 633 693 634 694 L 634 694 635 694 L 635 694 636 695 L 636 695 637 695 L 637 695 638 696 L 638 696 640 696 L 640 696 641 697 L 641 697 643 697 L 643 697 644 698 L 644 698 646 698 L 646 698 647 699 L 647 699 650 699 L 650 699 651 700 L 651 700 654 700 L 654 700 655 701 L 655 701 662 701 L 662 701 663 702 L 663 702 684 702 L 684 702 685 701 L 685 701 690 701 L 690 701 691 700 L 691 700 695 700 L 695 700 696 699 L 696 699 699 699 L 699 699 700 698 L 700 698 702 698 L 702 698 703 697 L 703 697 705 697 L 705 697 706 696 L 706 696 707 696 L 707 696 708 695 L 708 695 710 695 L 710 695 711 694 L 711 694 712 694 L 712 694 713 693 L 713 693 714 693 L 714 693 716 691 L 716 691 717 691 L 717 691 718 690 L 718 690 719 690 L 719 690 721 688 L 721 688 722 688 L 722 688 724 686 L 724 686 725 686 L 725 686 732 679 L 732 679 733 679 L 733 679 734 678 L 734 678 734 677 L 734 677 738 673 L 738 673 738 672 L 738 672 741 669 L 741 669 741 668 L 741 668 743 666 L 743 666 743 665 L 743 665 744 664 L 744 664 744 663 L 744 663 745 662 L 745 662 745 661 L 745 661 746 660 L 746 660 746 659 L 746 659 747 658 L 747 658 747 657 L 747 657 748 656 L 748 656 748 654 L 748 654 749 653 L 749 653 749 651 L 749 651 750 650 L 750 650 750 648 L 750 648 751 647 L 751 647 751 643 L 751 643 752 642 L 752 642 752 637 L 752 637 753 636 L 753 636 753 552 L 753 552 752 551 L 752 551 752 541 L 752 541 753 540 L 753 540 753 535 L 753 535 752 534 L 752 534 752 497 L 752 497 720 497 L 720 497 720 626 L 720 626 719 627 L 719 627 719 634 L 719 634 718 635 L 718 635 718 638 L 718 638 717 639 L 717 639 717 641 L 717 641 716 642 L 716 642 716 643 L 716 643 715 644 L 715 644 715 646 L 715 646 713 648 L 713 648 713 649 L 713 649 710 652 L 710 652 710 653 L 710 653 703 660 L 703 660 702 660 L 702 660 699 663 L 699 663 698 663 L 698 663 697 664 L 697 664 696 664 L 696 664 695 665 L 695 665 694 665 L 694 665 693 666 L 693 666 692 666 L 692 666 691 667 L 691 667 689 667 L 689 667 688 668 L 688 668 685 668 L 685 668 684 669 L 684 669 681 669 L 681 669 680 670 L 680 670 665 670 L 665 670 664 669 L 664 669 660 669 L 660 669 659 668 L 659 668 657 668 L 657 668 656 667 L 656 667 654 667 L 654 667 653 666 L 653 666 652 666 L 652 666 651 665 L 651 665 650 665 L 650 665 648 663 L 648 663 647 663 L 647 663 646 662 L 646 662 645 662 L 645 662 641 658 L 641 658 640 658 L 640 658 639 657 L 639 657 639 656 L 639 656 634 651 L 634 651 634 650 L 634 650 632 648 L 632 648 632 647 L 632 647 631 646 L 631 646 631 645 L 631 645 630 644 L 630 644 630 642 L 630 642 629 641 L 629 641 629 639 L 629 639 628 638 L 628 638 628 635 L 628 635 627 634 L 627 634 627 630 L 627 630 626 629 L 626 629 626 497 L 626 497 Z" fill="currentColor"/><path d="M 456 497 455 498 L 455 498 455 697 L 455 697 456 698 L 456 698 566 698 L 566 698 567 697 L 567 697 567 667 L 567 667 566 666 L 566 666 490 666 L 490 666 489 665 L 489 665 489 497 L 489 497 Z" fill="currentColor"/><path d="M 333 494 332 495 L 332 495 327 495 L 327 495 326 496 L 326 496 322 496 L 322 496 321 497 L 321 497 318 497 L 318 497 317 498 L 317 498 315 498 L 315 498 314 499 L 314 499 312 499 L 312 499 311 500 L 311 500 309 500 L 309 500 308 501 L 308 501 307 501 L 307 501 306 502 L 306 502 305 502 L 305 502 304 503 L 304 503 302 503 L 302 503 300 505 L 300 505 299 505 L 299 505 298 506 L 298 506 297 506 L 297 506 296 507 L 296 507 295 507 L 295 507 294 508 L 294 508 293 508 L 293 508 291 510 L 291 510 290 510 L 290 510 288 512 L 288 512 287 512 L 287 512 284 515 L 284 515 283 515 L 283 515 277 521 L 277 521 276 521 L 276 521 272 525 L 272 525 272 526 L 272 526 266 532 L 266 532 266 533 L 266 533 263 536 L 263 536 263 537 L 263 537 261 539 L 261 539 261 540 L 261 540 259 542 L 259 542 259 543 L 259 543 258 544 L 258 544 258 545 L 258 545 257 546 L 257 546 257 547 L 257 547 256 548 L 256 548 256 549 L 256 549 254 551 L 254 551 254 553 L 254 553 253 554 L 253 554 253 555 L 253 555 252 556 L 252 556 252 557 L 252 557 251 558 L 251 558 251 560 L 251 560 250 561 L 250 561 250 562 L 250 562 249 563 L 249 563 249 565 L 249 565 248 566 L 248 566 248 569 L 248 569 247 570 L 247 570 247 573 L 247 573 246 574 L 246 574 246 577 L 246 577 245 578 L 245 578 245 582 L 245 582 244 583 L 244 583 244 592 L 244 592 243 593 L 243 593 243 604 L 243 604 244 605 L 244 605 244 612 L 244 612 245 613 L 245 613 245 619 L 245 619 246 620 L 246 620 246 623 L 246 623 247 624 L 247 624 247 627 L 247 627 248 628 L 248 628 248 630 L 248 630 249 631 L 249 631 249 633 L 249 633 250 634 L 250 634 250 636 L 250 636 251 637 L 251 637 251 638 L 251 638 252 639 L 252 639 252 641 L 252 641 253 642 L 253 642 253 643 L 253 643 254 644 L 254 644 254 645 L 254 645 255 646 L 255 646 255 647 L 255 647 256 648 L 256 648 256 649 L 256 649 257 650 L 257 650 257 651 L 257 651 259 653 L 259 653 259 654 L 259 654 261 656 L 261 656 261 657 L 261 657 263 659 L 263 659 263 660 L 263 660 266 663 L 266 663 266 664 L 266 664 272 670 L 272 670 272 671 L 272 671 276 675 L 276 675 277 675 L 277 675 282 680 L 282 680 283 680 L 283 680 286 683 L 286 683 287 683 L 287 683 289 685 L 289 685 290 685 L 290 685 292 687 L 292 687 293 687 L 293 687 294 688 L 294 688 295 688 L 295 688 296 689 L 296 689 297 689 L 297 689 298 690 L 298 690 299 690 L 299 690 300 691 L 300 691 301 691 L 301 691 302 692 L 302 692 303 692 L 303 692 304 693 L 304 693 305 693 L 305 693 306 694 L 306 694 308 694 L 308 694 309 695 L 309 695 311 695 L 311 695 312 696 L 312 696 314 696 L 314 696 315 697 L 315 697 318 697 L 318 697 319 698 L 319 698 321 698 L 321 698 322 699 L 322 699 327 699 L 327 699 328 700 L 328 700 335 700 L 335 700 336 701 L 336 701 356 701 L 356 701 357 700 L 357 700 365 700 L 365 700 366 699 L 366 699 369 699 L 369 699 370 698 L 370 698 373 698 L 373 698 374 697 L 374 697 377 697 L 377 697 378 696 L 378 696 380 696 L 380 696 381 695 L 381 695 382 695 L 382 695 383 694 L 383 694 385 694 L 385 694 386 693 L 386 693 387 693 L 387 693 388 692 L 388 692 390 692 L 390 692 392 690 L 392 690 394 690 L 394 690 396 688 L 396 688 397 688 L 397 688 398 687 L 398 687 399 687 L 399 687 400 686 L 400 686 401 686 L 401 686 404 683 L 404 683 405 683 L 405 683 408 680 L 408 680 409 680 L 409 680 413 676 L 413 676 414 676 L 414 676 420 670 L 420 670 420 668 L 420 668 419 667 L 419 667 419 666 L 419 666 398 645 L 398 645 397 645 L 397 645 394 648 L 394 648 394 649 L 394 649 393 650 L 393 650 392 650 L 392 650 385 657 L 385 657 384 657 L 384 657 381 660 L 381 660 380 660 L 380 660 379 661 L 379 661 378 661 L 378 661 377 662 L 377 662 376 662 L 376 662 374 664 L 374 664 373 664 L 373 664 372 665 L 372 665 370 665 L 370 665 369 666 L 369 666 368 666 L 368 666 367 667 L 367 667 365 667 L 365 667 364 668 L 364 668 361 668 L 361 668 360 669 L 360 669 356 669 L 356 669 355 670 L 355 670 333 670 L 333 670 332 669 L 332 669 328 669 L 328 669 327 668 L 327 668 325 668 L 325 668 324 667 L 324 667 322 667 L 322 667 321 666 L 321 666 319 666 L 319 666 318 665 L 318 665 317 665 L 317 665 316 664 L 316 664 315 664 L 315 664 314 663 L 314 663 313 663 L 313 663 312 662 L 312 662 311 662 L 311 662 309 660 L 309 660 308 660 L 308 660 305 657 L 305 657 304 657 L 304 657 297 650 L 297 650 297 649 L 297 649 293 645 L 293 645 293 644 L 293 644 290 641 L 290 641 290 640 L 290 640 289 639 L 289 639 289 638 L 289 638 288 637 L 288 637 288 636 L 288 636 287 635 L 287 635 287 634 L 287 634 286 633 L 286 633 286 632 L 286 632 285 631 L 285 631 285 630 L 285 630 284 629 L 284 629 284 628 L 284 628 283 627 L 283 627 283 625 L 283 625 282 624 L 282 624 282 622 L 282 622 281 621 L 281 621 281 618 L 281 618 280 617 L 280 617 280 614 L 280 614 279 613 L 279 613 279 606 L 279 606 278 605 L 278 605 279 604 L 279 604 278 603 L 278 603 278 595 L 278 595 279 594 L 279 594 279 593 L 279 593 278 592 L 278 592 278 591 L 278 591 279 590 L 279 590 279 584 L 279 584 280 583 L 280 583 280 579 L 280 579 281 578 L 281 578 281 576 L 281 576 282 575 L 282 575 282 572 L 282 572 283 571 L 283 571 283 570 L 283 570 284 569 L 284 569 284 567 L 284 567 285 566 L 285 566 285 565 L 285 565 286 564 L 286 564 286 563 L 286 563 287 562 L 287 562 287 561 L 287 561 288 560 L 288 560 288 559 L 288 559 290 557 L 290 557 290 556 L 290 556 291 555 L 291 555 291 554 L 291 554 294 551 L 294 551 294 550 L 294 550 304 540 L 304 540 305 540 L 305 540 308 537 L 308 537 309 537 L 309 537 311 535 L 311 535 312 535 L 312 535 313 534 L 313 534 314 534 L 314 534 315 533 L 315 533 316 533 L 316 533 317 532 L 317 532 318 532 L 318 532 319 531 L 319 531 320 531 L 320 531 321 530 L 321 530 323 530 L 323 530 324 529 L 324 529 327 529 L 327 529 328 528 L 328 528 331 528 L 331 528 332 527 L 332 527 336 527 L 336 527 337 526 L 337 526 352 526 L 352 526 353 527 L 353 527 354 526 L 354 526 355 527 L 355 527 360 527 L 360 527 361 528 L 361 528 364 528 L 364 528 365 529 L 365 529 367 529 L 367 529 368 530 L 368 530 369 530 L 369 530 370 531 L 370 531 371 531 L 371 531 372 532 L 372 532 374 532 L 374 532 376 534 L 376 534 377 534 L 377 534 378 535 L 378 535 379 535 L 379 535 381 537 L 381 537 382 537 L 382 537 384 539 L 384 539 385 539 L 385 539 397 551 L 397 551 418 530 L 418 530 418 529 L 418 529 420 527 L 420 527 420 526 L 420 526 417 523 L 417 523 417 522 L 417 522 415 520 L 415 520 414 520 L 414 520 408 514 L 408 514 407 514 L 407 514 404 511 L 404 511 403 511 L 403 511 401 509 L 401 509 400 509 L 400 509 398 507 L 398 507 397 507 L 397 507 396 506 L 396 506 395 506 L 395 506 394 505 L 394 505 393 505 L 393 505 392 504 L 392 504 391 504 L 391 504 390 503 L 390 503 389 503 L 389 503 388 502 L 388 502 387 502 L 387 502 386 501 L 386 501 385 501 L 385 501 384 500 L 384 500 382 500 L 382 500 381 499 L 381 499 379 499 L 379 499 378 498 L 378 498 376 498 L 376 498 375 497 L 375 497 373 497 L 373 497 372 496 L 372 496 368 496 L 368 496 367 495 L 367 495 363 495 L 363 495 362 494 L 362 494 Z" fill="currentColor"/><path d="M 351 215 350 216 L 350 216 344 216 L 344 216 343 217 L 343 217 337 217 L 337 217 336 218 L 336 218 332 218 L 332 218 331 219 L 331 219 328 219 L 328 219 327 220 L 327 220 325 220 L 325 220 324 221 L 324 221 322 221 L 322 221 321 222 L 321 222 319 222 L 319 222 318 223 L 318 223 316 223 L 316 223 315 224 L 315 224 314 224 L 314 224 313 225 L 313 225 312 225 L 312 225 311 226 L 311 226 309 226 L 309 226 308 227 L 308 227 307 227 L 307 227 306 228 L 306 228 305 228 L 305 228 303 230 L 303 230 302 230 L 302 230 301 231 L 301 231 300 231 L 300 231 299 232 L 299 232 298 232 L 298 232 296 234 L 296 234 295 234 L 295 234 292 237 L 292 237 291 237 L 291 237 288 240 L 288 240 287 240 L 287 240 282 245 L 282 245 281 245 L 281 245 281 246 L 281 246 279 248 L 279 248 278 248 L 278 248 276 250 L 276 250 276 251 L 276 251 270 257 L 270 257 270 258 L 270 258 267 261 L 267 261 267 262 L 267 262 264 265 L 264 265 264 266 L 264 266 262 268 L 262 268 262 269 L 262 269 261 270 L 261 270 261 271 L 261 271 259 273 L 259 273 259 274 L 259 274 258 275 L 258 275 258 276 L 258 276 257 277 L 257 277 257 278 L 257 278 256 279 L 256 279 256 280 L 256 280 255 281 L 255 281 255 282 L 255 282 254 283 L 254 283 254 284 L 254 284 253 285 L 253 285 253 286 L 253 286 252 287 L 252 287 252 289 L 252 289 251 290 L 251 290 251 292 L 251 292 250 293 L 250 293 250 295 L 250 295 249 296 L 249 296 249 298 L 249 298 248 299 L 248 299 248 301 L 248 301 247 302 L 247 302 247 305 L 247 305 246 306 L 246 306 246 310 L 246 310 245 311 L 245 311 245 315 L 245 315 244 316 L 244 316 244 324 L 244 324 243 325 L 243 325 243 337 L 243 337 244 338 L 244 338 244 348 L 244 348 245 349 L 245 349 245 354 L 245 354 246 355 L 246 355 246 357 L 246 357 247 358 L 247 358 246 359 L 246 359 247 360 L 247 360 247 362 L 247 362 248 363 L 248 363 248 365 L 248 365 249 366 L 249 366 249 369 L 249 369 250 370 L 250 370 250 371 L 250 371 251 372 L 251 372 251 374 L 251 374 252 375 L 252 375 252 376 L 252 376 253 377 L 253 377 253 379 L 253 379 254 380 L 254 380 254 381 L 254 381 255 382 L 255 382 255 383 L 255 383 256 384 L 256 384 256 385 L 256 385 257 386 L 257 386 257 387 L 257 387 259 389 L 259 389 259 390 L 259 390 260 391 L 260 391 260 392 L 260 392 262 394 L 262 394 262 395 L 262 395 263 396 L 263 396 263 397 L 263 397 266 400 L 266 400 266 401 L 266 401 269 404 L 269 404 269 405 L 269 405 277 413 L 277 413 277 414 L 277 414 278 415 L 278 415 279 415 L 279 415 286 422 L 286 422 287 422 L 287 422 291 426 L 291 426 292 426 L 292 426 294 428 L 294 428 295 428 L 295 428 297 430 L 297 430 298 430 L 298 430 299 431 L 299 431 300 431 L 300 431 302 433 L 302 433 303 433 L 303 433 304 434 L 304 434 305 434 L 305 434 306 435 L 306 435 307 435 L 307 435 308 436 L 308 436 309 436 L 309 436 310 437 L 310 437 312 437 L 312 437 313 438 L 313 438 314 438 L 314 438 315 439 L 315 439 316 439 L 316 439 317 440 L 317 440 319 440 L 319 440 320 441 L 320 441 322 441 L 322 441 323 442 L 323 442 325 442 L 325 442 326 443 L 326 443 328 443 L 328 443 329 444 L 329 444 333 444 L 333 444 334 445 L 334 445 337 445 L 337 445 338 446 L 338 446 343 446 L 343 446 344 447 L 344 447 380 447 L 380 447 381 446 L 381 446 385 446 L 385 446 386 445 L 386 445 390 445 L 390 445 391 444 L 391 444 393 444 L 393 444 394 443 L 394 443 397 443 L 397 443 398 442 L 398 442 400 442 L 400 442 401 441 L 401 441 403 441 L 403 441 404 440 L 404 440 405 440 L 405 440 406 439 L 406 439 408 439 L 408 439 409 438 L 409 438 410 438 L 410 438 411 437 L 411 437 412 437 L 412 437 413 436 L 413 436 414 436 L 414 436 415 435 L 415 435 416 435 L 416 435 417 434 L 417 434 418 434 L 418 434 419 433 L 419 433 420 433 L 420 433 422 431 L 422 431 423 431 L 423 431 424 430 L 424 430 425 430 L 425 430 428 427 L 428 427 429 427 L 429 427 431 425 L 431 425 432 425 L 432 425 436 421 L 436 421 437 421 L 437 421 447 411 L 447 411 447 410 L 447 410 448 409 L 448 409 441 402 L 441 402 441 401 L 441 401 440 401 L 440 401 439 400 L 439 400 439 399 L 439 399 423 383 L 423 383 422 383 L 422 383 409 396 L 409 396 408 396 L 408 396 405 399 L 405 399 404 399 L 404 399 402 401 L 402 401 401 401 L 401 401 400 402 L 400 402 399 402 L 399 402 397 404 L 397 404 396 404 L 396 404 395 405 L 395 405 394 405 L 394 405 393 406 L 393 406 391 406 L 391 406 390 407 L 390 407 388 407 L 388 407 387 408 L 387 408 386 408 L 386 408 385 409 L 385 409 382 409 L 382 409 381 410 L 381 410 379 410 L 379 410 378 411 L 378 411 373 411 L 373 411 372 412 L 372 412 367 412 L 367 412 366 413 L 366 413 356 413 L 356 413 355 412 L 355 412 348 412 L 348 412 347 411 L 347 411 343 411 L 343 411 342 410 L 342 410 338 410 L 338 410 337 409 L 337 409 336 409 L 336 409 335 408 L 335 408 333 408 L 333 408 332 407 L 332 407 330 407 L 330 407 329 406 L 329 406 328 406 L 328 406 327 405 L 327 405 326 405 L 326 405 325 404 L 325 404 324 404 L 324 404 323 403 L 323 403 322 403 L 322 403 321 402 L 321 402 320 402 L 320 402 318 400 L 318 400 317 400 L 317 400 314 397 L 314 397 313 397 L 313 397 301 385 L 301 385 301 384 L 301 384 298 381 L 298 381 298 380 L 298 380 296 378 L 296 378 296 377 L 296 377 294 375 L 294 375 294 374 L 294 374 293 373 L 293 373 293 372 L 293 372 292 371 L 292 371 292 370 L 292 370 291 369 L 291 369 291 368 L 291 368 290 367 L 290 367 290 366 L 290 366 289 365 L 289 365 289 363 L 289 363 288 362 L 288 362 288 360 L 288 360 287 359 L 287 359 287 357 L 287 357 286 356 L 286 356 286 354 L 286 354 285 353 L 285 353 285 350 L 285 350 284 349 L 284 349 284 344 L 284 344 283 343 L 283 343 283 335 L 283 335 282 334 L 282 334 282 330 L 282 330 283 329 L 283 329 283 318 L 283 318 284 317 L 284 317 284 314 L 284 314 285 313 L 285 313 285 310 L 285 310 286 309 L 286 309 286 307 L 286 307 287 306 L 287 306 287 304 L 287 304 288 303 L 288 303 288 301 L 288 301 289 300 L 289 300 289 299 L 289 299 290 298 L 290 298 290 297 L 290 297 291 296 L 291 296 291 295 L 291 295 292 294 L 292 294 292 293 L 292 293 293 292 L 293 292 293 291 L 293 291 294 290 L 294 290 294 289 L 294 289 296 287 L 296 287 296 286 L 296 286 298 284 L 298 284 298 283 L 298 283 302 279 L 302 279 302 278 L 302 278 311 269 L 311 269 312 269 L 312 269 316 265 L 316 265 317 265 L 317 265 319 263 L 319 263 320 263 L 320 263 321 262 L 321 262 322 262 L 322 262 323 261 L 323 261 324 261 L 324 261 326 259 L 326 259 328 259 L 328 259 329 258 L 329 258 330 258 L 330 258 331 257 L 331 257 333 257 L 333 257 334 256 L 334 256 335 256 L 335 256 336 255 L 336 255 338 255 L 338 255 339 254 L 339 254 342 254 L 342 254 343 253 L 343 253 347 253 L 347 253 348 252 L 348 252 372 252 L 372 252 373 253 L 373 253 377 253 L 377 253 378 254 L 378 254 381 254 L 381 254 382 255 L 382 255 384 255 L 384 255 385 256 L 385 256 388 256 L 388 256 389 257 L 389 257 390 257 L 390 257 391 258 L 391 258 392 258 L 392 258 393 259 L 393 259 394 259 L 394 259 395 260 L 395 260 396 260 L 396 260 397 261 L 397 261 398 261 L 398 261 399 262 L 399 262 400 262 L 400 262 402 264 L 402 264 403 264 L 403 264 405 266 L 405 266 406 266 L 406 266 421 281 L 421 281 422 281 L 422 281 448 255 L 448 255 448 253 L 448 253 445 250 L 445 250 445 249 L 445 249 441 245 L 441 245 440 245 L 440 245 439 244 L 439 244 439 243 L 439 243 438 243 L 438 243 434 239 L 434 239 433 239 L 433 239 430 236 L 430 236 429 236 L 429 236 427 234 L 427 234 426 234 L 426 234 424 232 L 424 232 423 232 L 423 232 422 231 L 422 231 421 231 L 421 231 419 229 L 419 229 418 229 L 418 229 417 228 L 417 228 416 228 L 416 228 415 227 L 415 227 414 227 L 414 227 413 226 L 413 226 411 226 L 411 226 410 225 L 410 225 409 225 L 409 225 408 224 L 408 224 406 224 L 406 224 405 223 L 405 223 404 223 L 404 223 403 222 L 403 222 401 222 L 401 222 400 221 L 400 221 398 221 L 398 221 397 220 L 397 220 394 220 L 394 220 393 219 L 393 219 390 219 L 390 219 389 218 L 389 218 385 218 L 385 218 384 217 L 384 217 380 217 L 380 217 379 216 L 379 216 371 216 L 371 216 370 215 L 370 215 Z" fill="currentColor"/><path d="M 565 214 564 215 L 564 215 556 215 L 556 215 555 216 L 555 216 551 216 L 551 216 550 217 L 550 217 546 217 L 546 217 545 218 L 545 218 543 218 L 543 218 542 219 L 542 219 540 219 L 540 219 539 220 L 539 220 537 220 L 537 220 536 221 L 536 221 535 221 L 535 221 534 222 L 534 222 533 222 L 533 222 532 223 L 532 223 531 223 L 531 223 530 224 L 530 224 529 224 L 529 224 528 225 L 528 225 527 225 L 527 225 526 226 L 526 226 525 226 L 525 226 523 228 L 523 228 522 228 L 522 228 520 230 L 520 230 519 230 L 519 230 516 233 L 516 233 515 233 L 515 233 508 240 L 508 240 508 241 L 508 241 505 244 L 505 244 505 245 L 505 245 503 247 L 503 247 503 248 L 503 248 501 250 L 501 250 501 251 L 501 251 500 252 L 500 252 500 253 L 500 253 499 254 L 499 254 499 256 L 499 256 498 257 L 498 257 498 259 L 498 259 497 260 L 497 260 497 262 L 497 262 496 263 L 496 263 496 266 L 496 266 495 267 L 495 267 495 271 L 495 271 494 272 L 494 272 494 292 L 494 292 495 293 L 495 293 495 298 L 495 298 496 299 L 496 299 496 301 L 496 301 497 302 L 497 302 497 303 L 497 303 498 304 L 498 304 498 306 L 498 306 499 307 L 499 307 499 308 L 499 308 500 309 L 500 309 500 310 L 500 310 501 311 L 501 311 501 312 L 501 312 503 314 L 503 314 503 315 L 503 315 505 317 L 505 317 505 318 L 505 318 513 326 L 513 326 514 326 L 514 326 517 329 L 517 329 518 329 L 518 329 520 331 L 520 331 521 331 L 521 331 522 332 L 522 332 523 332 L 523 332 525 334 L 525 334 526 334 L 526 334 527 335 L 527 335 528 335 L 528 335 529 336 L 529 336 531 336 L 531 336 532 337 L 532 337 533 337 L 533 337 534 338 L 534 338 536 338 L 536 338 537 339 L 537 339 538 339 L 538 339 539 340 L 539 340 542 340 L 542 340 543 341 L 543 341 544 341 L 544 341 545 342 L 545 342 548 342 L 548 342 549 343 L 549 343 551 343 L 551 343 552 344 L 552 344 554 344 L 554 344 555 345 L 555 345 558 345 L 558 345 559 346 L 559 346 562 346 L 562 346 563 347 L 563 347 566 347 L 566 347 567 348 L 567 348 570 348 L 570 348 571 349 L 571 349 573 349 L 573 349 574 350 L 574 350 577 350 L 577 350 578 351 L 578 351 580 351 L 580 351 581 352 L 581 352 583 352 L 583 352 584 353 L 584 353 586 353 L 586 353 587 354 L 587 354 588 354 L 588 354 589 355 L 589 355 591 355 L 591 355 592 356 L 592 356 593 356 L 593 356 595 358 L 595 358 596 358 L 596 358 597 359 L 597 359 598 359 L 598 359 601 362 L 601 362 602 362 L 602 362 605 365 L 605 365 605 366 L 605 366 607 368 L 607 368 607 369 L 607 369 608 370 L 608 370 608 371 L 608 371 609 372 L 609 372 609 374 L 609 374 610 375 L 610 375 610 386 L 610 386 609 387 L 609 387 609 390 L 609 390 608 391 L 608 391 608 393 L 608 393 607 394 L 607 394 607 395 L 607 395 605 397 L 605 397 605 398 L 605 398 598 405 L 598 405 597 405 L 597 405 595 407 L 595 407 594 407 L 594 407 593 408 L 593 408 592 408 L 592 408 591 409 L 591 409 589 409 L 589 409 588 410 L 588 410 586 410 L 586 410 585 411 L 585 411 581 411 L 581 411 580 412 L 580 412 559 412 L 559 412 558 411 L 558 411 553 411 L 553 411 552 410 L 552 410 549 410 L 549 410 548 409 L 548 409 546 409 L 546 409 545 408 L 545 408 543 408 L 543 408 542 407 L 542 407 541 407 L 541 407 540 406 L 540 406 539 406 L 539 406 538 405 L 538 405 536 405 L 536 405 534 403 L 534 403 533 403 L 533 403 532 402 L 532 402 531 402 L 531 402 529 400 L 529 400 528 400 L 528 400 526 398 L 526 398 525 398 L 525 398 521 394 L 521 394 520 394 L 520 394 512 386 L 512 386 510 386 L 510 386 506 390 L 506 390 506 391 L 506 391 488 409 L 488 409 487 409 L 487 409 485 411 L 485 411 496 422 L 496 422 497 422 L 497 422 500 425 L 500 425 501 425 L 501 425 504 428 L 504 428 505 428 L 505 428 507 430 L 507 430 508 430 L 508 430 509 431 L 509 431 510 431 L 510 431 512 433 L 512 433 513 433 L 513 433 514 434 L 514 434 515 434 L 515 434 516 435 L 516 435 517 435 L 517 435 518 436 L 518 436 519 436 L 519 436 520 437 L 520 437 521 437 L 521 437 522 438 L 522 438 523 438 L 523 438 524 439 L 524 439 525 439 L 525 439 526 440 L 526 440 528 440 L 528 440 529 441 L 529 441 531 441 L 531 441 532 442 L 532 442 534 442 L 534 442 535 443 L 535 443 537 443 L 537 443 538 444 L 538 444 540 444 L 540 444 541 445 L 541 445 544 445 L 544 445 545 446 L 545 446 549 446 L 549 446 550 447 L 550 447 556 447 L 556 447 557 448 L 557 448 584 448 L 584 448 585 447 L 585 447 590 447 L 590 447 591 446 L 591 446 595 446 L 595 446 596 445 L 596 445 599 445 L 599 445 600 444 L 600 444 602 444 L 602 444 603 443 L 603 443 604 443 L 604 443 605 442 L 605 442 607 442 L 607 442 608 441 L 608 441 609 441 L 609 441 610 440 L 610 440 611 440 L 611 440 612 439 L 612 439 613 439 L 613 439 614 438 L 614 438 615 438 L 615 438 616 437 L 616 437 617 437 L 617 437 619 435 L 619 435 620 435 L 620 435 622 433 L 622 433 623 433 L 623 433 627 429 L 627 429 628 429 L 628 429 633 424 L 633 424 633 423 L 633 423 637 419 L 637 419 637 418 L 637 418 639 416 L 639 416 639 415 L 639 415 641 413 L 641 413 641 412 L 641 412 642 411 L 642 411 642 410 L 642 410 643 409 L 643 409 643 408 L 643 408 644 407 L 644 407 644 406 L 644 406 645 405 L 645 405 645 403 L 645 403 646 402 L 646 402 646 400 L 646 400 647 399 L 647 399 647 395 L 647 395 648 394 L 648 394 648 389 L 648 389 649 388 L 649 388 649 371 L 649 371 648 370 L 648 370 648 367 L 648 367 647 366 L 647 366 647 362 L 647 362 646 361 L 646 361 646 359 L 646 359 645 358 L 645 358 645 356 L 645 356 644 355 L 644 355 644 353 L 644 353 643 352 L 643 352 643 351 L 643 351 641 349 L 641 349 641 348 L 641 348 640 347 L 640 347 640 346 L 640 346 638 344 L 638 344 638 343 L 638 343 635 340 L 635 340 635 339 L 635 339 630 334 L 630 334 629 334 L 629 334 625 330 L 625 330 624 330 L 624 330 622 328 L 622 328 621 328 L 621 328 620 327 L 620 327 619 327 L 619 327 617 325 L 617 325 615 325 L 615 325 614 324 L 614 324 613 324 L 613 324 612 323 L 612 323 611 323 L 611 323 610 322 L 610 322 608 322 L 608 322 607 321 L 607 321 606 321 L 606 321 605 320 L 605 320 603 320 L 603 320 602 319 L 602 319 600 319 L 600 319 599 318 L 599 318 597 318 L 597 318 596 317 L 596 317 593 317 L 593 317 592 316 L 592 316 590 316 L 590 316 589 315 L 589 315 586 315 L 586 315 585 314 L 585 314 582 314 L 582 314 581 313 L 581 313 579 313 L 579 313 578 312 L 578 312 575 312 L 575 312 574 311 L 574 311 571 311 L 571 311 570 310 L 570 310 568 310 L 568 310 567 309 L 567 309 564 309 L 564 309 563 308 L 563 308 561 308 L 561 308 560 307 L 560 307 557 307 L 557 307 556 306 L 556 306 554 306 L 554 306 553 305 L 553 305 552 305 L 552 305 551 304 L 551 304 549 304 L 549 304 548 303 L 548 303 547 303 L 547 303 546 302 L 546 302 545 302 L 545 302 543 300 L 543 300 542 300 L 542 300 534 292 L 534 292 534 291 L 534 291 533 290 L 533 290 533 288 L 533 288 532 287 L 532 287 532 284 L 532 284 531 283 L 531 283 532 282 L 532 282 532 281 L 532 281 531 280 L 531 280 532 279 L 532 279 532 274 L 532 274 533 273 L 533 273 533 271 L 533 271 534 270 L 534 270 534 268 L 534 268 536 266 L 536 266 536 265 L 536 265 538 263 L 538 263 538 262 L 538 262 541 259 L 541 259 542 259 L 542 259 545 256 L 545 256 546 256 L 546 256 547 255 L 547 255 548 255 L 548 255 549 254 L 549 254 551 254 L 551 254 552 253 L 552 253 554 253 L 554 253 555 252 L 555 252 559 252 L 559 252 560 251 L 560 251 567 251 L 567 251 568 250 L 568 250 576 250 L 576 250 577 251 L 577 251 583 251 L 583 251 584 252 L 584 252 587 252 L 587 252 588 253 L 588 253 591 253 L 591 253 592 254 L 592 254 593 254 L 593 254 594 255 L 594 255 596 255 L 596 255 597 256 L 597 256 598 256 L 598 256 599 257 L 599 257 600 257 L 600 257 602 259 L 602 259 603 259 L 603 259 604 260 L 604 260 605 260 L 605 260 607 262 L 607 262 608 262 L 608 262 610 264 L 610 264 611 264 L 611 264 615 268 L 615 268 616 268 L 616 268 617 269 L 617 269 617 270 L 617 270 618 270 L 618 270 621 273 L 621 273 623 271 L 623 271 623 270 L 623 270 633 260 L 633 260 633 259 L 633 259 641 251 L 641 251 641 250 L 641 250 644 247 L 644 247 644 246 L 644 246 645 245 L 645 245 644 244 L 644 244 644 243 L 644 243 637 236 L 637 236 636 236 L 636 236 633 233 L 633 233 632 233 L 632 233 630 231 L 630 231 629 231 L 629 231 627 229 L 627 229 626 229 L 626 229 625 228 L 625 228 624 228 L 624 228 622 226 L 622 226 621 226 L 621 226 620 225 L 620 225 619 225 L 619 225 618 224 L 618 224 617 224 L 617 224 616 223 L 616 223 615 223 L 615 223 614 222 L 614 222 613 222 L 613 222 612 221 L 612 221 610 221 L 610 221 609 220 L 609 220 607 220 L 607 220 606 219 L 606 219 605 219 L 605 219 604 218 L 604 218 601 218 L 601 218 600 217 L 600 217 597 217 L 597 217 596 216 L 596 216 591 216 L 591 216 590 215 L 590 215 582 215 L 582 215 581 214 L 581 214 Z" fill="currentColor"/><path d="M 181 212 169 224 L 169 224 169 225 L 169 225 168 226 L 168 226 167 226 L 167 226 167 227 L 167 227 165 229 L 165 229 165 230 L 165 230 162 233 L 162 233 162 234 L 162 234 160 236 L 160 236 160 237 L 160 237 158 239 L 158 239 158 240 L 158 240 157 241 L 157 241 157 242 L 157 242 155 244 L 155 244 155 245 L 155 245 154 246 L 154 246 154 247 L 154 247 153 248 L 153 248 153 249 L 153 249 152 250 L 152 250 152 251 L 152 251 151 252 L 151 252 151 253 L 151 253 150 254 L 150 254 150 255 L 150 255 149 256 L 149 256 149 258 L 149 258 148 259 L 148 259 148 260 L 148 260 147 261 L 147 261 147 263 L 147 263 146 264 L 146 264 146 266 L 146 266 145 267 L 145 267 145 268 L 145 268 144 269 L 144 269 144 271 L 144 271 143 272 L 143 272 143 275 L 143 275 142 276 L 142 276 142 278 L 142 278 141 279 L 141 279 141 283 L 141 283 140 284 L 140 284 140 287 L 140 287 139 288 L 139 288 139 290 L 139 290 138 291 L 138 291 138 294 L 138 294 137 295 L 137 295 137 300 L 137 300 136 301 L 136 301 136 307 L 136 307 135 308 L 135 308 135 314 L 135 314 134 315 L 134 315 134 324 L 134 324 133 325 L 133 325 133 337 L 133 337 132 338 L 132 338 132 408 L 132 408 133 409 L 133 409 133 421 L 133 421 134 422 L 134 422 134 433 L 134 433 135 434 L 135 434 135 444 L 135 444 136 445 L 136 445 136 452 L 136 452 137 453 L 137 453 137 458 L 137 458 138 459 L 138 459 137 460 L 137 460 138 461 L 138 461 138 466 L 138 466 139 467 L 139 467 139 473 L 139 473 140 474 L 140 474 140 481 L 140 481 141 482 L 141 482 141 488 L 141 488 142 489 L 142 489 142 495 L 142 495 143 496 L 143 496 143 501 L 143 501 144 502 L 144 502 144 509 L 144 509 145 510 L 145 510 145 515 L 145 515 146 516 L 146 516 146 522 L 146 522 147 523 L 147 523 147 530 L 147 530 148 531 L 148 531 148 537 L 148 537 149 538 L 149 538 149 545 L 149 545 150 546 L 150 546 150 553 L 150 553 151 554 L 151 554 151 555 L 151 555 150 556 L 150 556 151 557 L 151 557 151 564 L 151 564 152 565 L 152 565 152 573 L 152 573 153 574 L 153 574 153 582 L 153 582 154 583 L 154 583 154 584 L 154 584 153 585 L 153 585 154 586 L 154 586 154 598 L 154 598 155 599 L 155 599 155 651 L 155 651 154 652 L 154 652 154 660 L 154 660 153 661 L 153 661 153 666 L 153 666 152 667 L 152 667 152 671 L 152 671 151 672 L 151 672 151 676 L 151 676 150 677 L 150 677 150 679 L 150 679 149 680 L 149 680 149 683 L 149 683 148 684 L 148 684 148 686 L 148 686 147 687 L 147 687 147 689 L 147 689 146 690 L 146 690 146 692 L 146 692 145 693 L 145 693 145 695 L 145 695 144 696 L 144 696 144 697 L 144 697 143 698 L 143 698 143 699 L 143 699 142 700 L 142 700 142 702 L 142 702 141 703 L 141 703 141 704 L 141 704 140 705 L 140 705 140 706 L 140 706 139 707 L 139 707 139 708 L 139 708 137 710 L 137 710 137 711 L 137 711 136 712 L 136 712 136 713 L 136 713 134 715 L 134 715 135 715 L 135 715 136 714 L 136 714 137 714 L 137 714 138 713 L 138 713 139 713 L 139 713 140 712 L 140 712 141 712 L 141 712 145 708 L 145 708 146 708 L 146 708 146 707 L 146 707 156 697 L 156 697 156 696 L 156 696 159 693 L 159 693 159 692 L 159 692 162 689 L 162 689 162 688 L 162 688 163 687 L 163 687 163 686 L 163 686 165 684 L 165 684 165 683 L 165 683 167 681 L 167 681 167 680 L 167 680 168 679 L 168 679 168 678 L 168 678 170 676 L 170 676 170 675 L 170 675 171 674 L 171 674 171 673 L 171 673 172 672 L 172 672 172 671 L 172 671 173 670 L 173 670 173 669 L 173 669 174 668 L 174 668 174 667 L 174 667 175 666 L 175 666 175 664 L 175 664 176 663 L 176 663 176 662 L 176 662 177 661 L 177 661 177 660 L 177 660 178 659 L 178 659 178 657 L 178 657 179 656 L 179 656 179 654 L 179 654 180 653 L 180 653 180 651 L 180 651 181 650 L 181 650 181 648 L 181 648 182 647 L 182 647 182 644 L 182 644 183 643 L 183 643 183 641 L 183 641 184 640 L 184 640 184 637 L 184 637 185 636 L 185 636 185 633 L 185 633 186 632 L 186 632 186 629 L 186 629 187 628 L 187 628 187 623 L 187 623 188 622 L 188 622 188 618 L 188 618 189 617 L 189 617 189 612 L 189 612 190 611 L 190 611 190 603 L 190 603 191 602 L 191 602 191 595 L 191 595 192 594 L 192 594 192 580 L 192 580 193 579 L 193 579 193 545 L 193 545 192 544 L 192 544 192 531 L 192 531 191 530 L 191 530 191 519 L 191 519 190 518 L 190 518 190 509 L 190 509 189 508 L 189 508 189 502 L 189 502 188 501 L 188 501 188 494 L 188 494 187 493 L 187 493 187 485 L 187 485 186 484 L 186 484 186 480 L 186 480 185 479 L 185 479 185 474 L 185 474 184 473 L 184 473 184 467 L 184 467 183 466 L 183 466 183 460 L 183 460 182 459 L 182 459 182 454 L 182 454 181 453 L 181 453 181 447 L 181 447 180 446 L 180 446 180 440 L 180 440 179 439 L 179 439 179 434 L 179 434 178 433 L 178 433 178 428 L 178 428 177 427 L 177 427 177 420 L 177 420 176 419 L 176 419 176 413 L 176 413 175 412 L 175 412 175 407 L 175 407 174 406 L 174 406 175 405 L 175 405 174 404 L 174 404 174 398 L 174 398 173 397 L 173 397 173 390 L 173 390 172 389 L 172 389 172 381 L 172 381 171 380 L 171 380 171 370 L 171 370 170 369 L 170 369 170 357 L 170 357 169 356 L 169 356 169 343 L 169 343 168 342 L 168 342 169 341 L 169 341 169 340 L 169 340 168 339 L 168 339 168 280 L 168 280 167 279 L 167 279 168 278 L 168 278 168 263 L 168 263 169 262 L 169 262 168 261 L 168 261 169 260 L 169 260 169 253 L 169 253 170 252 L 170 252 170 249 L 170 249 171 248 L 171 248 171 243 L 171 243 172 242 L 172 242 172 239 L 172 239 173 238 L 173 238 173 234 L 173 234 174 233 L 174 233 174 231 L 174 231 175 230 L 175 230 175 227 L 175 227 176 226 L 176 226 176 224 L 176 224 177 223 L 177 223 177 221 L 177 221 178 220 L 178 220 178 219 L 178 219 179 218 L 179 218 179 216 L 179 216 180 215 L 180 215 180 214 L 180 214 181 213 L 181 213 Z" fill="currentColor"/>
</svg>